<svg width="139" height="139" viewBox="0 0 139 139" fill="none" xmlns="http://www.w3.org/2000/svg">
<mask id="mask0_140_66" style="mask-type:alpha" maskUnits="userSpaceOnUse" x="-9" y="-19" width="166" height="178">
<path fill-rule="evenodd" clip-rule="evenodd" d="M-8.93485 86.9309V92.8151C-9.02168 90.8569 -9.02175 88.8937 -8.93485 86.9309Z" fill="white"/>
<path fill-rule="evenodd" clip-rule="evenodd" d="M84.3206 80.6287C87.0211 82.8176 88.8588 85.8627 89.5167 89.239C99.2066 90.6061 108.981 91.3147 118.771 91.3597C131.599 91.3285 144.398 90.1271 157 87.7708V-19H50.7886V-14.5954C50.8298 -7.4285 51.2459 -0.268394 52.0352 6.85663C54.7297 7.62327 57.1503 9.11813 59.0206 11.1705C60.8908 13.2229 62.1353 15.7501 62.6119 18.4635C63.0886 21.1769 62.7782 23.9672 61.7163 26.5158C60.6543 29.0643 58.8835 31.2684 56.6061 32.8764C60.3384 48.2378 65.8598 63.1266 73.0614 77.2487H74.7236C78.226 77.2444 81.6201 78.4398 84.3206 80.6287ZM115.732 40.228C115.699 42.2593 115.187 44.2568 114.235 46.0697C122.781 53.4131 132.483 59.4016 142.98 63.8111C142.515 67.4723 141.739 71.0904 140.659 74.6291C127.691 69.4877 115.778 62.1612 105.477 52.9932C104.373 53.2479 103.244 53.3929 102.109 53.4259C98.5084 53.4068 95.0624 52.0155 92.5236 49.556C89.9848 47.0965 88.5597 43.7688 88.5598 40.3001C88.5355 38.6421 88.8668 36.997 89.5329 35.4681C78.4632 20.522 71.369 3.18719 68.8728 -15.0158C72.8776 -14.8876 76.8618 -14.4047 80.7748 -13.5734C83.1973 1.446 89.1081 15.7446 98.0665 28.2561C99.3517 27.7069 100.714 27.3425 102.109 27.1743C105.709 27.1742 109.163 28.5472 111.716 30.9932C114.269 33.4392 115.713 36.7593 115.732 40.228Z" fill="white"/>
<path d="M24.6705 114.64C24.1834 112.62 24.1808 110.513 24.663 108.476C14.2822 103.382 3.09793 99.9238 -8.47155 98.2311C-8.70006 96.4328 -8.85456 94.6261 -8.93485 92.8151V159H73.2223C66.9653 144.748 57.4233 132.098 45.3081 121.993C44.1705 122.864 42.9093 123.572 41.5648 124.093C37.9839 125.01 34.1969 124.53 31.0312 122.759C27.8656 120.988 25.5788 118.069 24.6705 114.64Z" fill="white"/>
<path d="M38.3225 -13.2903C42.3078 -15.5324 46.4778 -17.4424 50.7886 -19H-8.93485V86.9309C5.2805 88.7187 19.0067 92.9383 31.6003 99.3916C32.6336 98.8581 33.7191 98.4272 34.8398 98.1055C38.4255 97.2077 42.2094 97.7076 45.3646 99.496C48.5197 101.284 50.7896 104.216 51.6782 107.65C52.1271 109.285 52.219 110.998 51.9481 112.681C66.7871 124.658 78.2837 140.013 85.4297 157.397C81.4136 158.29 77.3273 158.827 73.2223 159H157V87.7708C155.024 92.5208 152.603 97.0808 149.77 101.392C139.501 102.829 129.143 103.565 118.771 103.595C108.257 103.58 97.7574 102.816 87.3559 101.311C95.0207 112.363 103.79 122.637 113.535 131.98C109.312 133.788 104.949 135.261 100.487 136.385C91.5128 127.254 83.3652 117.374 76.1364 106.857H74.7236C71.3306 106.852 68.0392 105.721 65.3838 103.648C62.7285 101.575 60.8652 98.6815 60.0966 95.438C37.9077 89.4458 16.7978 80.1183 -2.48334 67.7869C-2.94211 64.3243 -3.19186 60.838 -3.2313 57.3464V52.6155C16.5892 66.6171 38.753 77.107 62.2574 83.6109C54.391 68.3446 48.3932 52.2182 44.3893 35.5681C41.0204 34.804 38.02 32.9301 35.8878 30.2586C33.7556 27.5871 32.6204 24.2793 32.6712 20.8861C32.6696 18.3879 33.3175 15.9306 34.5537 13.7468C35.7898 11.563 37.5733 9.72489 39.7353 8.4064C38.8525 1.20567 38.3808 -6.03789 38.3225 -13.2903Z" fill="white"/>
</mask>
<g mask="url(#mask0_140_66)">
<circle cx="69.5" cy="69.5" r="68.5" fill="#00EBFF" stroke="white" stroke-width="2"/>
</g>
<mask id="mask1_140_66" style="mask-type:alpha" maskUnits="userSpaceOnUse" x="0" y="0" width="139" height="139">
<circle cx="69.5" cy="69.5" r="69.5" fill="white"/>
</mask>
<g mask="url(#mask1_140_66)">
<path d="M88.5351 89.4302L88.6714 90.1296L89.377 90.2291C99.1117 91.6026 108.931 92.3145 118.766 92.3597L118.773 92.3597C131.039 92.3299 143.278 91.2352 155.346 89.089C153.598 93.0328 151.537 96.8364 149.181 100.464C139.106 101.853 128.945 102.565 118.771 102.595C108.305 102.58 97.8533 101.82 87.4991 100.321L85.2243 99.9919L86.5341 101.881C93.9487 112.572 102.392 122.539 111.747 131.643C108.185 133.095 104.527 134.307 100.798 135.273C92.0229 126.299 84.048 116.602 76.9605 106.291L76.6625 105.857H76.1364H74.7252C71.5529 105.852 68.4778 104.795 65.9992 102.86C63.5209 100.925 61.7852 98.2273 61.0697 95.2075L60.9324 94.6279L60.3573 94.4726C38.417 88.5475 17.5369 79.3471 -1.55174 67.1951C-1.96698 63.9256 -2.19387 60.6356 -2.2313 57.3407V57.3368V57.3273V57.3177V57.3082V57.2986V57.2891V57.2795V57.27V57.2604V57.2509V57.2414V57.2318V57.2223V57.2128V57.2032V57.1937V57.1842V57.1746V57.1651V57.1556V57.1461V57.1366V57.127V57.1175V57.108V57.0985V57.089V57.0795V57.07V57.0605V57.051V57.0415V57.032V57.0225V57.013V57.0035V56.994V56.9845V56.975V56.9655V56.956V56.9465V56.9371V56.9276V56.9181V56.9086V56.8991V56.8897V56.8802V56.8707V56.8613V56.8518V56.8423V56.8329V56.8234V56.8139V56.8045V56.795V56.7856V56.7761V56.7667V56.7572V56.7478V56.7383V56.7289V56.7194V56.71V56.7005V56.6911V56.6817V56.6722V56.6628V56.6534V56.6439V56.6345V56.6251V56.6156V56.6062V56.5968V56.5874V56.5779V56.5685V56.5591V56.5497V56.5403V56.5309V56.5215V56.5121V56.5026V56.4932V56.4838V56.4744V56.465V56.4556V56.4462V56.4368V56.4274V56.418V56.4087V56.3993V56.3899V56.3805V56.3711V56.3617V56.3523V56.3429V56.3336V56.3242V56.3148V56.3054V56.2961V56.2867V56.2773V56.2679V56.2586V56.2492V56.2398V56.2305V56.2211V56.2118V56.2024V56.193V56.1837V56.1743V56.165V56.1556V56.1463V56.1369V56.1276V56.1182V56.1089V56.0995V56.0902V56.0808V56.0715V56.0622V56.0528V56.0435V56.0341V56.0248V56.0155V56.0062V55.9968V55.9875V55.9782V55.9688V55.9595V55.9502V55.9409V55.9316V55.9222V55.9129V55.9036V55.8943V55.885V55.8757V55.8663V55.857V55.8477V55.8384V55.8291V55.8198V55.8105V55.8012V55.7919V55.7826V55.7733V55.764V55.7547V55.7454V55.7361V55.7268V55.7175V55.7083V55.699V55.6897V55.6804V55.6711V55.6618V55.6525V55.6433V55.634V55.6247V55.6154V55.6062V55.5969V55.5876V55.5783V55.5691V55.5598V55.5505V55.5413V55.532V55.5227V55.5135V55.5042V55.4949V55.4857V55.4764V55.4671V55.4579V55.4486V55.4394V55.4301V55.4209V55.4116V55.4024V55.3931V55.3839V55.3746V55.3654V55.3561V55.3469V55.3376V55.3284V55.3192V55.3099V55.3007V55.2914V55.2822V55.273V55.2637V55.2545V55.2453V55.236V55.2268V55.2176V55.2084V55.1991V55.1899V55.1807V55.1715V55.1622V55.153V55.1438V55.1346V55.1253V55.1161V55.1069V55.0977V55.0885V55.0793V55.0701V55.0608V55.0516V55.0424V55.0332V55.024V55.0148V55.0056V54.9964V54.9872V54.978V54.9688V54.9596V54.9504V54.9412V54.932V54.9228V54.9136V54.9044V54.8952V54.886V54.8768V54.8676V54.8584V54.8492V54.84V54.8308V54.8217V54.8125V54.8033V54.7941V54.7849V54.7757V54.7665V54.7574V54.7482V54.739V54.7298V54.7206V54.7115V54.7023V54.6931V54.6839V54.6748V54.6656V54.6564V54.6473V54.6381V54.6289V54.6197V54.6106V54.6014V54.5922V54.5831V54.5739V54.5647V54.5556V54.5464V54.5373V54.5355C17.2798 68.0526 38.9971 78.2122 61.9907 84.5746L64.193 85.184L63.1463 83.1528C55.3164 67.9575 49.3467 51.9063 45.3616 35.3343L45.2163 34.7303L44.6105 34.5929C41.4603 33.8784 38.6584 32.1269 36.6694 29.6348C34.6807 27.1431 33.6237 24.0606 33.671 20.9011L33.6712 20.8933L33.6711 20.8855C33.6697 18.561 34.2725 16.2735 35.4239 14.2394C36.5754 12.2052 38.2379 10.4908 40.2559 9.26016L40.8063 8.92453L40.7279 8.2847C39.8737 1.31765 39.4064 -5.6897 39.3281 -12.7063C42.6929 -14.5673 46.1886 -16.1901 49.7886 -17.5622V-17.5547V-17.5461V-17.5375V-17.5289V-17.5203V-17.5117V-17.5031V-17.4945V-17.4859V-17.4773V-17.4687V-17.4601V-17.4515V-17.4429V-17.4343V-17.4257V-17.4171V-17.4085V-17.3999V-17.3913V-17.3827V-17.3741V-17.3655V-17.3569V-17.3483V-17.3397V-17.3311V-17.3225V-17.3139V-17.3053V-17.2967V-17.2881V-17.2795V-17.2709V-17.2622V-17.2536V-17.245V-17.2364V-17.2278V-17.2192V-17.2106V-17.202V-17.1934V-17.1848V-17.1762V-17.1676V-17.159V-17.1504V-17.1418V-17.1332V-17.1246V-17.116V-17.1074V-17.0988V-17.0902V-17.0816V-17.073V-17.0644V-17.0558V-17.0472V-17.0386V-17.03V-17.0214V-17.0128V-17.0042V-16.9956V-16.987V-16.9784V-16.9698V-16.9612V-16.9525V-16.9439V-16.9353V-16.9267V-16.9181V-16.9095V-16.9009V-16.8923V-16.8837V-16.8751V-16.8665V-16.8579V-16.8493V-16.8407V-16.8321V-16.8235V-16.8149V-16.8063V-16.7977V-16.7891V-16.7805V-16.7719V-16.7633V-16.7547V-16.7461V-16.7375V-16.7289V-16.7203V-16.7117V-16.7031V-16.6945V-16.6859V-16.6773V-16.6687V-16.6601V-16.6515V-16.6429V-16.6342V-16.6256V-16.617V-16.6084V-16.5998V-16.5912V-16.5826V-16.574V-16.5654V-16.5568V-16.5482V-16.5396V-16.531V-16.5224V-16.5138V-16.5052V-16.4966V-16.488V-16.4794V-16.4708V-16.4622V-16.4536V-16.445V-16.4364V-16.4278V-16.4192V-16.4106V-16.402V-16.3934V-16.3848V-16.3762V-16.3676V-16.359V-16.3504V-16.3418V-16.3332V-16.3246V-16.3159V-16.3073V-16.2987V-16.2901V-16.2815V-16.2729V-16.2643V-16.2557V-16.2471V-16.2385V-16.2299V-16.2213V-16.2127V-16.2041V-16.1955V-16.1869V-16.1783V-16.1697V-16.1611V-16.1525V-16.1439V-16.1353V-16.1267V-16.1181V-16.1095V-16.1009V-16.0923V-16.0837V-16.0751V-16.0665V-16.0579V-16.0493V-16.0407V-16.0321V-16.0235V-16.0149V-16.0062V-15.9976V-15.989V-15.9804V-15.9718V-15.9632V-15.9546V-15.946V-15.9374V-15.9288V-15.9202V-15.9116V-15.903V-15.8944V-15.8858V-15.8772V-15.8686V-15.86V-15.8514V-15.8428V-15.8342V-15.8256V-15.817V-15.8084V-15.7998V-15.7912V-15.7826V-15.774V-15.7654V-15.7568V-15.7482V-15.7396V-15.731V-15.7224V-15.7138V-15.7052V-15.6966V-15.6879V-15.6793V-15.6707V-15.6621V-15.6535V-15.6449V-15.6363V-15.6277V-15.6191V-15.6105V-15.6019V-15.5933V-15.5847V-15.5761V-15.5675V-15.5589V-15.5503V-15.5417V-15.5331V-15.5245V-15.5159V-15.5073V-15.4987V-15.4901V-15.4815V-15.4729V-15.4643V-15.4557V-15.4471V-15.4385V-15.4299V-15.4213V-15.4127V-15.4041V-15.3955V-15.3869V-15.3782V-15.3696V-15.361V-15.3524V-15.3438V-15.3352V-15.3266V-15.318V-15.3094V-15.3008V-15.2922V-15.2836V-15.275V-15.2664V-15.2578V-15.2492V-15.2406V-15.232V-15.2234V-15.2148V-15.2062V-15.1976V-15.189V-15.1804V-15.1718V-15.1632V-15.1546V-15.146V-15.1374V-15.1288V-15.1202V-15.1116V-15.103V-15.0944V-15.0858V-15.0772V-15.0686V-15.0599V-15.0513V-15.0427V-15.0341V-15.0255V-15.0169V-15.0083V-14.9997V-14.9911V-14.9825V-14.9739V-14.9653V-14.9567V-14.9481V-14.9395V-14.9309V-14.9223V-14.9137V-14.9051V-14.8965V-14.8879V-14.8793V-14.8707V-14.8621V-14.8535V-14.8449V-14.8363V-14.8277V-14.8191V-14.8105V-14.8019V-14.7933V-14.7847V-14.7761V-14.7675V-14.7589V-14.7502V-14.7416V-14.733V-14.7244V-14.7158V-14.7072V-14.6986V-14.69V-14.6814V-14.6728V-14.6642V-14.6556V-14.647V-14.6384V-14.6298V-14.6212V-14.6126V-14.604L49.7886 -14.5954L49.7886 -14.5897C49.83 -7.38787 50.2481 -0.192934 51.0413 6.96674L51.1153 7.63458L51.7615 7.81846C54.2788 8.53466 56.5377 9.93049 58.2814 11.844C60.025 13.7574 61.1834 16.1114 61.627 18.6365C62.0706 21.1615 61.7819 23.7583 60.7932 26.1311C59.8044 28.5041 58.1545 30.559 56.0293 32.0595L55.4738 32.4517L55.6344 33.1125C59.385 48.5498 64.9337 63.5117 72.1705 77.7029L72.4488 78.2486H73.0614H74.7235H74.7248C77.9994 78.2447 81.1703 79.3625 83.6909 81.4056C86.2112 83.4483 87.9227 86.2871 88.5351 89.4302ZM113.35 45.6049L112.98 46.3095L113.583 46.8281C122.018 54.0756 131.567 60.0145 141.888 64.4343C141.473 67.4244 140.846 70.3836 140.012 73.2915C127.545 68.2161 116.085 61.0958 106.142 52.2462L105.756 51.9026L105.252 52.0188C104.218 52.2574 103.16 52.3938 102.097 52.4258C98.7553 52.4038 95.5651 51.1103 93.2194 48.8378C90.8709 46.5626 89.5597 43.4923 89.5598 40.3001V40.2928L89.5597 40.2854C89.5374 38.7706 89.84 37.2667 90.4497 35.8675L90.6806 35.3375L90.3365 34.8729C79.6058 20.3846 72.6465 3.63438 70.0326 -13.9675C73.3496 -13.802 76.6486 -13.3894 79.8998 -12.7334C82.4143 2.19147 88.3416 16.3918 97.2534 28.8383L97.7209 29.4912L98.4594 29.1757C99.6386 28.6718 100.888 28.3344 102.169 28.1744C105.495 28.1895 108.675 29.4648 111.024 31.7153C113.383 33.9755 114.711 37.0345 114.732 40.2227C114.7 42.0926 114.228 43.9326 113.35 45.6049ZM25.6361 108.706L25.82 107.929L25.1035 107.578C14.8549 102.549 3.83176 99.1008 -7.57044 97.3548C-7.92566 94.2743 -8.06082 91.1702 -7.97499 88.0644C5.73965 89.9128 18.9761 94.0462 31.1442 100.282L31.602 100.516L32.059 100.28C33.0287 99.7795 34.0474 99.3745 35.0993 99.0714C38.4363 98.2403 41.9492 98.7096 44.8714 100.366C47.7969 102.024 49.8911 104.735 50.71 107.9L50.7119 107.907L50.7138 107.914C51.1247 109.411 51.2091 110.979 50.9608 112.522L50.8687 113.095L51.32 113.459C65.7143 125.078 76.9329 139.899 84.0427 156.671C80.6838 157.356 77.279 157.79 73.8592 157.969C67.5361 143.83 58.0024 131.279 45.9486 121.225L45.3349 120.713L44.7003 121.199C43.6539 122 42.4948 122.654 41.2588 123.139C37.9385 123.974 34.4395 123.52 31.5196 121.886C28.5876 120.246 26.4792 117.55 25.64 114.395C25.1926 112.532 25.1907 110.588 25.6361 108.706Z" stroke="white" stroke-width="2"/>
</g>
</svg>
